Coordinates
version=1
nRows=11
nColumns=36
inDegrees=yes

Units are S.I. units (second, meters, Newtons, ...)
If the header above contains a line with 'inDegrees', this indicates whether rotational values are in degrees (yes) or radians (no).

endheader
time	pelvis_tilt	pelvis_list	pelvis_rotation	pelvis_tx	pelvis_ty	pelvis_tz	hip_flexion_r	hip_adduction_r	hip_rotation_r	knee_angle_r	knee_angle_r_beta	ankle_angle_r	subtalar_angle_r	mtp_angle_r	hip_flexion_l	hip_adduction_l	hip_rotation_l	knee_angle_l	knee_angle_l_beta	ankle_angle_l	subtalar_angle_l	mtp_angle_l	lumbar_extension	lumbar_bending	lumbar_rotation	arm_flex_r	arm_add_r	arm_rot_r	elbow_flex_r	pro_sup_r	arm_flex_l	arm_add_l	arm_rot_l	elbow_flex_l	pro_sup_l
      8.86666670	    -17.41228597	     -0.68908027	     -0.94153429	      0.62791623	      0.55246268	      0.02949102	     91.35425822	    -12.39934583	      2.28828039	    104.28483170	      1.82011367	     36.46971543	      7.08235312	     -7.49999987	     93.18528149	    -16.69612593	      5.31520967	    105.41281389	      1.83980068	     33.32323920	      3.56805960	     -7.49999987	    -40.90258734	     -0.79080551	      2.14546759	     77.71293024	      8.11468046	     74.05320968	    123.89131883	     88.65747380	     89.12014617	     13.76265728	     74.87507357	    123.12359722	     77.25810811
      8.88333330	    -17.23018520	     -0.63576402	     -1.15835552	      0.62562505	      0.56229582	      0.02946315	     90.32136340	    -11.70076146	      2.18825208	    103.38031026	      1.80432680	     36.32181752	      6.09245534	     -7.49999987	     91.89453506	    -16.81541533	      4.90383312	    104.36953668	      1.82159205	     33.50296481	      3.47295320	     -7.49999987	    -40.26608444	     -1.17890006	      2.33494787	     77.49797123	      7.94816267	     73.78404756	    123.73281800	     95.13230479	     88.95291295	     13.82394047	     74.77467570	    122.57762590	     83.05236719
      8.90000000	    -17.17589516	     -0.46099561	     -0.77322613	      0.62124216	      0.58265798	      0.03147608	     88.66859616	    -11.36598392	      2.04405692	    101.42214398	      1.77015035	     35.55553510	      4.81653356	     -7.49999987	     89.94271876	    -16.24279851	      4.07515684	    101.91541504	      1.77875955	     32.59386471	      2.89135786	     -7.49999987	    -40.22335604	     -1.43721557	      1.98979356	     77.86603914	      7.56307286	     73.80828291	    123.17796633	     91.34111746	     89.55423613	     14.00346029	     75.20004153	    122.12760975	     80.89240288
      8.91666670	    -16.58086791	     -0.23592104	     -0.63545963	      0.62027819	      0.59251928	      0.03122605	     86.63793840	    -10.86223982	      2.06294268	     99.26887722	      1.73256875	     34.60815746	      3.38155417	     -7.49999987	     87.60486204	    -15.50986512	      3.53881993	     99.55185199	      1.73750759	     32.06910200	      2.29481752	     -7.49999987	    -40.55969699	     -1.84784476	      1.70205088	     79.20603813	      7.12045678	     74.29554258	    123.08569697	     90.04682356	     91.38546158	     14.45386204	     75.43684963	    121.47516170	     79.67611354
      8.93333330	    -16.91778610	     -0.12819528	     -0.49602450	      0.61689302	      0.59667813	      0.02806614	     85.85409523	    -10.60856722	      2.09228871	     97.28412989	      1.69792838	     34.29653277	      3.12273538	     -7.49999987	     86.79465326	    -14.86595892	      3.21335843	     97.79021516	      1.70676123	     31.77725486	      2.13613487	     -7.49999987	    -39.36692482	     -1.78544876	      1.60659484	     80.09005898	      6.81295942	     74.04531042	    123.06691883	     90.08499725	     91.98028577	     14.39953252	     75.29289403	    121.43049529	     79.69696626
      8.95000000	    -15.84434049	      0.19012776	     -0.24595411	      0.61615964	      0.61330661	      0.02643557	     83.37751672	    -10.15941783	      2.63760840	     94.81896326	      1.65490310	     32.51265017	      0.43980233	     -7.49999987	     83.96539714	    -13.66317545	      2.64947406	     95.25507583	      1.66251470	     29.80445075	     -0.58882211	     -7.49999987	    -40.00934636	     -1.88904182	      0.82149810	     82.70794744	      6.45896935	     74.38779498	    122.91618475	     89.00472608	     93.59438881	     14.43675010	     75.35451990	    121.67884118	     79.02440049
      8.96666670	    -15.25530747	      0.41605447	      0.12217416	      0.61293260	      0.63087777	      0.02238737	     81.08821016	    -10.00823140	      3.08864986	     92.02787498	      1.60618942	     31.15504743	     -1.47591943	     -7.49999987	     81.49794966	    -12.35994306	      2.11863313	     92.61110302	      1.61636867	     28.40267362	     -2.20762559	     -7.49999987	    -40.01371220	     -1.50639473	      0.59178260	     82.90864999	      6.16050719	     74.54284173	    123.02150791	     87.94724787	     94.41617976	     14.27336387	     75.52531641	    121.59997677	     78.31806672
      8.98333330	    -14.28947106	      0.39386798	      0.19597811	      0.63344922	      0.64263590	      0.02918853	     77.75256433	     -9.33029942	      3.25087089	     89.81291668	      1.56753111	     30.82775843	     -2.94115813	     -7.49999987	     78.17755555	    -12.02148165	      2.16802977	     90.20728752	      1.57441418	     27.70693599	     -3.33002864	     -7.49999987	    -39.56004551	     -1.35612836	      0.69896881	     82.09053334	      6.37589131	     74.88066065	    122.45632827	     88.63486155	     93.37482438	     14.44580100	     76.23764210	    122.63859766	     78.61578114
      9.00000000	    -13.76017183	      0.39985407	      0.18480877	      0.63819478	      0.65302076	      0.02657902	     74.77964851	     -8.78796988	      3.33109893	     87.42714808	      1.52589159	     30.31253949	     -4.67879583	     -7.49999987	     75.31805107	    -11.73250647	      1.87732471	     88.05391702	      1.53683077	     27.52084132	     -4.01352129	     -7.49999987	    -38.15603879	     -1.08368557	      1.02669696	     80.44782384	      6.69052747	     76.06419202	    123.01379370	     88.18988904	     91.58211816	     14.22422177	     77.57796201	    123.53742367	     77.77777759
      9.01666670	    -12.72126374	      0.44640194	     -0.00532438	      0.63661604	      0.66638240	      0.03136768	     71.74605518	     -8.00480275	      3.43268025	     85.23993590	      1.48771754	     29.94527602	     -5.75725493	     -7.49999987	     71.86962310	    -11.76891511	      1.50933735	     85.52067901	      1.49261743	     27.21433437	     -4.88082041	     -7.49999987	    -37.09703018	     -1.29101360	      1.24141746	     79.37727676	      6.81733594	     75.55950532	    122.48266554	     89.10183525	     89.66558327	     13.82424473	     77.45167585	    124.57586100	     78.23075005
      9.03333330	    -11.87769221	      0.38473472	     -0.13649814	      0.64178741	      0.68634910	      0.02952129	     68.47758356	     -7.36891694	      3.29531241	     82.56015305	      1.44094650	     29.30811915	     -6.89870570	     -7.49999987	     68.40534781	    -11.67411897	      1.10122465	     82.61555995	      1.44191353	     26.41777618	     -5.72423474	     -7.49999987	    -35.94134063	     -1.05477005	      1.38393518	     77.75104440	      7.02051091	     75.85044013	    122.67887251	     92.00348748	     87.85273904	     13.17382183	     78.24011089	    125.20743389	     79.26437743
